{"glyphs":{":":{"x_min":0,"x_max":215,"ha":215,"o":"m 62 475 b 37 475 13 453 13 426 b 13 406 28 390 49 390 b 75 390 99 413 99 439 b 99 460 84 475 62 475 z m 62 81 b 37 81 13 59 13 32 b 13 12 28 -4 49 -4 b 75 -4 99 19 99 45 b 99 66 84 81 62 81 z"},"$":{"x_min":0,"x_max":542,"ha":542,"o":"m 365 750 l 307 750 l 293 662 b 267 659 243 654 221 645 b 199 636 180 624 163 611 b 146 597 133 581 122 564 b 112 547 105 529 102 510 b 100 497 99 485 99 474 b 99 459 101 446 104 434 b 110 413 120 396 133 382 b 146 367 162 355 181 346 b 200 337 219 329 239 322 l 196 47 b 162 51 132 60 105 73 b 79 86 56 99 37 112 l -3 64 b 19 45 46 28 79 15 b 111 2 147 -6 187 -9 l 177 -70 l 235 -70 l 245 -8 b 271 -6 297 -1 322 7 b 347 14 369 25 390 40 b 410 54 427 72 442 93 b 456 114 466 140 470 169 b 472 182 473 195 473 206 b 473 223 471 238 466 251 b 457 272 445 290 429 305 b 412 319 393 331 371 340 b 349 349 327 357 304 364 l 342 606 b 376 601 404 593 429 581 b 453 568 475 555 494 542 l 535 590 b 512 608 486 624 454 637 b 423 650 389 659 351 662 z m 249 384 b 236 390 223 397 211 404 b 200 411 190 420 182 430 b 174 439 168 451 165 464 b 163 472 162 480 162 489 b 162 495 163 502 164 510 b 168 535 181 557 202 576 b 222 594 233 603 285 608 z m 294 303 b 311 297 328 290 343 283 b 358 276 371 267 382 257 b 392 247 400 235 405 221 b 408 212 410 201 410 190 b 410 184 409 177 408 169 b 405 148 398 130 389 115 b 380 100 368 88 354 78 b 340 68 325 61 308 56 b 291 51 282 48 254 46 z"},"?":{"x_min":0,"x_max":463,"ha":463,"o":"m 157 494 l 170 496 l 164 548 b 163 547 160 547 158 547 b 150 547 142 550 137 555 b 135 557 132 563 132 571 b 132 572 133 574 133 576 b 134 586 142 600 149 606 b 156 612 172 624 185 630 b 192 633 216 642 229 645 b 241 648 262 650 274 650 b 288 650 309 647 329 639 b 347 631 358 623 370 610 b 382 597 392 582 397 564 b 400 553 401 543 401 532 b 401 523 400 513 399 503 b 394 474 385 453 371 433 b 354 409 334 394 318 383 b 298 369 287 362 255 346 b 230 334 212 324 192 310 b 171 296 156 284 140 262 b 123 240 116 222 111 192 b 108 173 107 157 108 139 l 162 150 b 161 170 162 182 164 193 b 166 208 171 224 190 244 b 204 259 219 270 240 282 l 304 317 b 324 328 346 341 367 358 b 384 372 405 392 422 418 b 436 442 447 469 452 502 b 454 515 455 527 455 539 b 455 555 453 570 449 585 b 442 610 429 632 415 647 b 400 663 380 678 356 688 b 333 698 308 703 282 703 b 262 703 237 700 217 695 b 199 690 176 682 156 670 b 138 660 117 644 105 630 b 90 613 79 588 79 562 b 79 544 84 529 93 518 b 107 502 128 494 149 494 z m 144 100 b 116 100 88 74 88 45 b 88 22 105 5 129 5 b 157 5 185 30 185 59 b 185 82 168 100 144 100 z"},"<":{"x_min":0,"x_max":389,"ha":389,"o":"m 334 403 l 310 450 l 14 265 l 251 80 l 293 129 l 117 267 z"},"'":{"x_min":0,"x_max":193,"ha":193,"o":"m 145 492 l 186 684 l 114 684 l 93 492 z"},"=":{"x_min":0,"x_max":459,"ha":459,"o":"m 421 347 l 430 399 l 78 399 l 69 347 z m 396 187 l 404 239 l 52 239 l 44 187 z"},"a":{"x_min":0,"x_max":612,"ha":612,"o":"m 493 61 b 484 50 475 45 462 45 b 453 45 445 49 439 56 b 434 62 432 68 432 76 l 432 80 l 498 499 l 443 499 b 429 501 410 503 388 505 b 367 507 342 508 314 508 b 279 508 246 501 215 488 b 184 475 157 456 133 433 b 108 410 89 382 73 350 b 57 318 45 284 40 247 b 37 227 35 208 35 190 b 35 175 36 161 38 147 b 42 116 51 88 67 65 b 81 42 100 23 125 10 b 149 -3 178 -10 212 -10 b 246 -10 277 -3 305 10 b 333 23 357 43 376 68 b 376 46 383 28 397 13 b 411 -3 430 -10 453 -10 b 468 -10 483 -7 498 1 b 512 8 523 17 533 30 z m 394 188 b 390 163 382 142 370 124 b 358 105 344 90 328 78 b 311 66 293 57 274 51 b 256 45 237 42 220 42 b 194 42 172 48 155 60 b 137 71 123 87 113 106 b 103 125 97 147 95 172 b 94 182 93 192 93 202 b 93 218 95 234 97 250 b 102 281 110 309 123 334 b 135 359 151 381 170 399 b 187 417 209 431 232 441 b 255 451 280 456 307 456 b 335 456 360 455 383 452 b 406 449 423 448 435 448 z"},"L":{"x_min":0,"x_max":512,"ha":512,"o":"m 84 57 l 184 684 l 123 684 l 14 0 l 402 0 l 411 57 z"},"3":{"x_min":0,"x_max":559,"ha":559,"o":"m 146 612 l 167 564 b 221 597 269 614 316 614 b 355 614 387 602 406 585 b 421 572 432 553 432 529 b 432 498 418 476 411 464 b 399 447 384 433 375 426 b 359 414 337 404 330 401 b 317 396 298 392 284 392 l 175 392 l 167 336 l 277 336 b 299 335 319 331 336 325 b 355 318 370 308 383 295 b 396 282 405 268 411 248 b 414 236 417 221 417 205 b 417 159 398 115 352 84 b 314 59 263 47 211 47 b 171 47 140 54 110 67 b 84 78 49 99 36 107 l 4 58 b 30 41 57 25 89 12 b 121 -1 160 -12 212 -12 b 285 -12 349 10 393 40 b 445 76 470 125 478 175 b 480 187 481 199 481 210 b 481 225 479 239 477 250 b 472 271 465 290 456 306 b 446 323 433 337 418 349 b 403 360 391 367 369 372 b 372 373 387 379 393 382 b 397 384 421 399 431 407 b 442 416 455 429 469 449 b 481 469 498 500 498 540 b 498 575 483 604 462 625 b 432 655 387 672 329 672 b 282 672 246 661 224 652 b 202 643 182 632 157 618 z"},";":{"x_min":0,"x_max":199,"ha":199,"o":"m 62 475 b 37 475 13 453 13 426 b 13 406 28 390 49 390 b 75 390 99 413 99 439 b 99 460 84 475 62 475 z m 21 32 b 18 6 13 -14 7 -27 b 0 -40 -11 -54 -26 -67 l 3 -100 b 31 -82 50 -63 62 -42 b 73 -21 81 4 85 32 l 89 52 b 90 61 88 69 83 76 b 78 82 71 85 62 85 b 53 85 44 82 37 76 b 30 69 26 61 24 52 z"},"J":{"x_min":0,"x_max":468,"ha":468,"o":"m 97 667 l 114 618 l 117 617 b 130 623 144 628 153 631 b 166 635 183 639 199 639 b 210 639 214 637 222 635 l 247 625 b 250 624 277 613 287 610 b 299 607 317 604 333 604 b 346 604 359 606 367 608 b 370 609 381 613 389 617 l 322 194 l 318 175 b 315 164 312 154 308 145 b 305 137 299 126 292 114 b 284 101 279 94 269 84 b 245 65 219 53 178 53 b 139 53 110 64 91 85 b 86 93 82 99 79 110 b 75 122 73 133 73 137 b 72 154 74 153 73 159 l 74 174 l 72 175 l 71 175 l 65 176 b 62 177 57 177 50 177 l 18 179 b 16 166 15 153 15 142 b 15 129 16 117 18 106 b 22 85 29 65 44 47 b 71 11 116 -4 169 -4 b 218 -4 264 9 304 46 b 316 57 326 67 338 85 b 349 102 356 117 361 127 b 368 145 370 158 372 164 b 372 163 372 147 379 191 l 457 687 l 401 687 b 402 686 388 676 381 672 b 368 664 359 661 345 661 b 331 661 317 664 292 672 l 244 690 b 232 694 219 696 211 696 b 205 696 185 695 172 692 b 167 691 142 684 136 682 b 123 678 115 675 111 672 z"},"V":{"x_min":0,"x_max":680,"ha":680,"o":"m 127 607 b 131 617 136 621 142 625 b 149 629 154 631 163 631 b 169 630 174 629 180 625 b 187 621 189 616 190 610 l 299 0 l 357 0 l 689 685 l 629 685 l 360 123 l 342 86 l 247 625 l 243 640 b 240 649 235 658 231 662 b 226 670 216 678 208 682 b 198 688 187 690 175 690 b 152 690 133 683 115 671 b 98 660 82 643 73 623 z"},"\"":{"x_min":0,"x_max":314,"ha":314,"o":"m 151 492 l 192 684 l 120 684 l 99 492 z m 261 492 l 302 684 l 230 684 l 209 492 z"},"7":{"x_min":0,"x_max":487,"ha":487,"o":"m 500 645 l 501 653 l 388 651 l 285 651 l 186 649 l 83 649 l 74 592 l 302 592 b 333 593 370 594 413 596 l 79 0 l 143 0 z"},"S":{"x_min":0,"x_max":559,"ha":559,"o":"m 293 348 l 345 320 b 363 310 377 300 390 288 b 400 278 413 266 419 246 b 422 237 425 224 425 209 b 425 174 413 144 401 126 b 391 108 376 92 359 77 b 341 62 321 51 300 43 b 278 34 253 30 231 30 b 189 30 152 43 122 68 b 92 92 71 125 61 164 l 7 144 b 11 120 27 89 36 74 b 49 55 63 39 86 21 b 105 6 125 -5 148 -13 b 175 -22 202 -25 223 -25 b 256 -25 287 -18 313 -8 b 343 3 366 17 390 38 b 414 58 433 79 449 105 b 463 128 472 147 478 184 b 480 198 481 210 481 220 b 481 241 477 256 472 271 b 465 292 450 315 435 330 b 423 341 400 358 381 369 b 362 380 333 394 328 397 l 323 400 b 307 407 291 415 276 424 b 254 436 246 443 232 456 b 219 467 208 481 200 493 b 194 504 191 514 191 526 b 191 531 191 536 192 541 b 195 557 200 572 208 584 b 216 596 228 610 238 618 b 246 624 265 636 282 642 b 299 648 321 651 336 651 b 342 651 360 650 373 647 b 384 645 396 639 404 634 b 415 627 418 623 423 614 b 427 605 428 600 428 595 l 428 590 b 427 585 425 580 422 575 b 420 572 418 568 411 561 b 409 558 401 553 398 552 b 395 551 388 551 384 553 l 372 501 b 375 501 378 500 381 500 b 391 500 404 502 409 504 b 421 507 435 515 443 521 b 452 528 460 536 468 549 b 475 560 480 573 483 588 b 484 593 484 598 484 603 b 484 615 482 626 478 636 b 472 652 458 667 451 673 b 440 683 420 692 406 697 b 388 703 366 706 345 706 b 320 706 295 702 268 692 b 244 683 220 668 205 656 b 187 641 174 627 160 605 b 149 587 142 569 137 541 b 135 531 135 522 135 515 b 135 498 138 485 146 470 b 157 447 169 433 184 417 b 200 401 211 391 237 376 b 255 365 277 354 285 351 z"},"}":{"x_min":0,"x_max":322,"ha":322,"o":"m 95 704 b 114 699 131 694 146 689 b 161 684 173 678 183 671 b 192 664 199 655 203 645 b 205 639 206 631 206 622 b 206 617 206 612 205 607 b 203 595 199 579 194 560 l 177 499 b 171 477 166 455 160 434 b 155 413 151 394 148 377 b 147 371 147 365 147 359 b 147 352 148 344 150 338 b 154 327 158 319 164 312 b 170 305 176 299 183 296 b 190 292 196 289 200 288 b 194 287 188 284 180 280 b 172 276 164 271 156 264 b 148 257 140 248 134 238 b 127 227 122 215 120 200 b 117 183 115 164 114 143 b 113 121 111 99 111 78 l 108 17 b 107 -2 106 -18 104 -30 b 101 -45 97 -58 90 -68 b 83 -78 73 -87 62 -94 b 50 -101 36 -107 19 -112 b 3 -117 -16 -122 -37 -127 l -30 -173 b -9 -167 12 -161 33 -156 b 54 -151 74 -143 92 -134 b 109 -125 125 -112 138 -95 b 152 -78 161 -56 165 -28 b 168 -9 170 12 172 34 l 175 99 l 177 157 b 178 175 179 189 181 200 b 183 211 187 220 193 227 b 200 234 207 239 216 244 b 225 249 234 252 244 255 b 254 258 264 260 274 261 l 282 316 b 274 317 265 318 256 321 b 246 323 238 326 230 331 b 223 336 217 342 213 349 b 210 354 208 361 208 368 b 208 371 208 374 209 377 b 211 388 214 402 219 420 l 235 479 b 241 500 247 521 252 543 b 258 565 262 586 265 605 b 267 615 268 625 268 633 b 268 648 265 661 260 672 b 252 689 240 702 226 711 b 211 720 193 728 174 733 b 155 738 135 744 116 750 z"},"Z":{"x_min":0,"x_max":589,"ha":589,"o":"m 110 90 l 556 681 l 150 681 l 142 628 l 455 628 l -11 12 l 30 -15 l 76 46 b 103 41 116 37 155 24 b 182 15 212 5 240 -2 b 271 -10 295 -14 326 -14 b 352 -14 369 -11 390 -4 b 409 2 427 11 441 19 b 457 27 468 35 477 42 l 491 54 l 459 91 l 448 83 b 439 75 431 70 422 65 b 411 59 397 52 383 47 b 366 41 351 39 334 39 b 310 39 288 43 262 50 b 234 58 214 64 178 75 b 167 79 152 82 143 84 z"},"x":{"x_min":0,"x_max":558,"ha":558,"o":"m 273 252 l 466 500 l 400 500 l 242 294 l 146 500 l 79 500 l 199 250 l 1 0 l 66 0 l 228 206 l 311 24 b 319 11 329 0 342 -8 b 355 -15 369 -19 383 -19 b 407 -19 429 -10 449 7 b 468 24 480 45 485 68 l 429 71 b 427 62 423 54 415 48 b 408 41 400 38 390 38 b 377 38 368 43 364 54 z"},")":{"x_min":0,"x_max":370,"ha":370,"o":"m 104 707 b 133 688 159 664 182 634 b 204 604 223 571 236 534 b 250 497 259 458 264 417 b 266 401 266 384 266 368 b 266 343 265 319 261 294 b 255 253 243 213 225 172 b 208 131 186 92 161 55 b 135 18 106 -15 74 -45 b 42 -75 9 -99 -26 -118 l -8 -161 b 40 -137 82 -108 120 -75 b 158 -41 190 -4 218 36 b 246 75 268 117 285 161 b 303 205 315 249 322 294 b 327 325 329 357 329 388 b 329 401 329 414 328 428 b 324 472 315 514 300 554 b 285 593 264 630 237 664 b 210 697 176 726 136 750 z"},"&":{"x_min":0,"x_max":636,"ha":636,"o":"m 500 -3 l 542 38 l 465 123 b 487 151 505 181 519 214 b 533 247 543 280 548 315 l 555 357 l 502 357 l 496 317 b 491 289 483 262 473 235 b 462 208 448 182 431 159 l 302 301 b 290 314 278 328 264 341 b 251 354 239 368 229 383 b 219 398 211 413 205 429 b 202 439 200 450 200 462 b 200 468 200 474 201 480 b 206 510 217 534 235 552 b 253 570 281 579 320 579 b 337 579 355 575 372 568 b 389 560 402 542 411 514 l 455 548 b 452 562 446 575 437 586 b 427 597 417 606 406 613 b 395 620 383 625 370 629 b 358 632 347 634 338 634 b 308 634 281 630 257 622 b 234 613 214 602 197 588 b 180 574 167 558 157 539 b 146 520 140 501 136 480 b 134 469 134 459 134 449 b 134 435 135 422 139 409 b 145 388 155 369 167 352 b 147 343 129 331 113 318 b 97 304 83 289 71 272 b 59 255 50 238 42 220 b 35 202 30 184 27 166 b 25 155 24 144 24 133 b 24 119 26 105 30 93 b 37 71 48 52 63 37 b 78 22 97 10 119 2 b 142 -6 166 -10 194 -10 b 240 -10 283 -2 322 14 b 360 29 394 51 424 79 z m 263 252 l 390 114 b 366 92 339 75 307 62 b 276 49 241 42 202 42 b 183 42 166 45 150 51 b 135 56 121 65 110 76 b 99 87 92 100 87 116 b 84 126 82 137 82 148 b 82 184 96 218 120 252 b 139 279 166 299 200 314 z"},"_":{"x_min":0,"x_max":579,"ha":579,"o":"m 433 -133 l 442 -78 l 2 -78 l -7 -133 z"},"v":{"x_min":0,"x_max":493,"ha":493,"o":"m 65 471 b 73 466 82 458 89 448 b 97 437 102 426 105 415 l 176 0 l 232 0 l 474 499 l 419 499 l 218 84 l 163 408 b 158 434 151 456 140 473 b 130 490 117 505 101 516 z"},"O":{"x_min":0,"x_max":809,"ha":809,"o":"m 53 330 b 50 311 48 292 48 273 b 48 246 51 219 59 192 b 71 144 93 107 117 79 b 146 44 178 19 217 1 b 255 -17 298 -27 348 -27 b 397 -27 447 -17 494 3 b 539 22 581 51 616 83 b 651 116 685 159 707 198 b 730 239 744 282 752 330 l 755 349 b 758 367 759 385 759 404 b 759 431 756 459 749 486 b 738 532 717 569 693 598 b 666 632 634 658 595 677 b 557 695 513 706 461 706 b 407 706 357 694 315 676 b 269 656 226 626 192 595 b 157 563 125 522 103 482 b 78 437 62 391 56 349 z m 696 330 b 689 288 675 249 654 213 b 634 178 610 147 576 117 b 543 88 504 65 473 52 b 437 37 396 28 353 28 b 313 28 278 36 245 52 b 212 67 183 90 161 117 b 141 142 124 172 113 213 b 108 234 105 257 105 280 b 105 296 106 313 109 330 l 112 349 b 118 391 133 430 153 466 b 173 500 199 533 231 562 b 264 591 299 612 336 627 b 372 642 409 651 452 651 b 495 651 533 642 564 627 b 592 614 624 590 646 562 b 670 533 685 502 694 466 b 700 443 704 427 704 404 b 704 389 702 372 699 349 z"},"(":{"x_min":0,"x_max":370,"ha":370,"o":"m 362 750 b 314 726 272 697 234 664 b 196 630 164 593 136 554 b 108 514 86 472 69 428 b 51 383 39 339 32 294 b 27 263 25 231 25 201 b 25 187 25 174 26 161 b 30 117 39 75 54 36 b 69 -4 90 -41 117 -75 b 144 -108 178 -137 218 -161 l 250 -118 b 221 -99 195 -75 172 -45 b 150 -15 131 18 118 55 b 104 92 95 131 90 172 b 88 188 88 205 88 221 b 88 245 89 269 93 294 b 99 335 111 376 129 417 b 146 458 168 497 193 534 b 219 571 248 604 280 634 b 312 664 345 688 380 707 z"},"C":{"x_min":0,"x_max":740,"ha":740,"o":"m 610 155 b 580 119 537 87 498 67 b 457 46 408 33 354 33 b 306 33 272 43 242 57 b 203 75 178 99 159 123 b 136 153 120 184 111 219 b 107 237 104 260 104 285 b 104 302 105 319 108 337 b 114 376 127 417 151 459 b 172 496 197 527 232 559 b 261 586 295 610 340 629 b 380 646 418 655 461 655 b 482 655 499 653 518 649 b 538 645 557 638 571 631 b 589 622 603 610 610 602 b 616 595 621 583 621 569 b 621 566 621 563 620 560 b 619 551 615 541 606 532 b 597 524 588 521 580 521 b 571 521 566 525 560 529 l 519 486 b 534 473 552 467 571 467 b 598 467 621 478 639 494 b 665 518 676 548 676 579 b 676 598 670 614 664 625 b 657 638 640 658 618 672 b 598 685 569 696 548 701 b 524 707 494 710 469 710 b 420 710 373 699 328 680 b 283 661 240 635 200 599 b 161 563 128 522 104 480 b 79 436 61 385 54 336 b 51 315 49 294 49 274 b 49 247 52 220 58 197 b 67 159 87 117 114 84 b 140 52 174 24 212 6 b 249 -11 295 -22 347 -22 b 407 -22 464 -7 514 18 b 570 45 597 61 650 124 z"},"W":{"x_min":0,"x_max":1120,"ha":1120,"o":"m 126 612 b 134 628 146 636 161 636 b 178 636 188 628 190 613 l 294 0 l 353 0 l 639 591 l 738 0 l 797 0 l 1129 685 l 1069 685 l 788 100 l 784 86 l 781 76 l 781 72 l 779 100 l 684 685 l 625 685 l 344 100 l 336 79 l 336 89 l 335 100 l 248 631 b 245 650 237 666 222 677 b 208 688 191 694 171 694 b 151 694 131 688 113 676 b 95 663 82 647 74 628 z"},"A":{"x_min":0,"x_max":775,"ha":775,"o":"m 675 0 l 487 686 l 468 686 l 107 75 b 100 63 90 55 74 55 b 64 55 59 58 54 62 b 50 66 46 74 45 82 l -13 71 b -13 53 -8 34 10 17 b 24 4 43 -4 65 -4 b 80 -4 98 0 116 10 b 134 20 147 33 156 50 l 257 227 l 552 227 l 611 0 z m 446 552 l 461 585 b 461 578 462 573 463 568 l 466 557 l 467 552 l 537 284 l 290 284 z"},"f":{"x_min":0,"x_max":399,"ha":399,"o":"m -29 -260 l 26 -260 l 99 200 l 247 200 l 255 252 l 107 252 l 133 415 l 181 415 b 244 415 295 431 336 462 b 376 493 401 539 410 600 b 412 610 412 619 412 628 b 412 637 412 646 410 654 b 407 671 400 687 390 700 b 380 713 367 723 350 731 b 332 738 312 742 287 742 b 257 742 231 736 209 724 b 187 711 168 694 153 673 b 138 652 125 626 115 597 b 105 568 97 536 92 502 z m 141 467 l 147 505 b 151 530 156 553 163 576 b 169 598 177 618 187 635 b 198 652 210 665 225 675 b 239 685 257 690 279 690 b 309 690 330 681 341 663 b 350 650 355 634 355 617 b 355 612 354 606 353 600 b 350 581 345 564 338 548 b 330 532 320 518 306 506 b 292 494 276 485 257 478 b 238 471 215 467 189 467 z"},"Q":{"x_min":0,"x_max":781,"ha":781,"o":"m 109 -166 l 147 -199 l 199 -138 l 292 -171 b 315 -179 329 -183 351 -187 b 372 -191 390 -193 430 -193 b 459 -193 477 -192 541 -150 l 523 -106 b 476 -135 450 -141 422 -141 b 406 -141 383 -139 367 -136 b 350 -133 331 -128 312 -121 l 237 -94 l 309 -9 b 314 -9 318 -9 323 -10 l 337 -10 b 392 -10 436 0 479 17 b 529 37 565 63 597 91 b 628 120 655 149 684 203 b 705 244 721 287 730 342 b 734 365 735 387 735 408 b 735 434 733 458 728 481 b 719 521 703 559 676 593 b 654 622 621 649 582 667 b 543 685 500 694 448 694 b 396 694 350 685 305 667 b 261 650 221 624 187 593 b 153 562 125 528 101 482 b 76 436 62 387 55 343 b 51 320 49 296 49 274 b 49 255 50 238 53 222 b 58 186 71 149 87 120 b 105 89 129 64 155 44 b 181 26 203 12 253 0 z m 441 639 b 483 639 518 631 549 617 b 581 603 607 582 626 556 b 648 528 661 499 669 463 b 673 444 675 425 675 404 b 675 384 673 363 669 341 b 662 295 649 258 631 222 b 612 186 589 155 560 128 b 529 100 498 81 463 67 b 426 52 387 45 346 45 b 299 45 265 54 236 67 b 199 84 177 105 159 128 b 139 152 125 180 117 222 b 113 243 111 263 111 284 b 111 302 112 321 115 340 b 123 386 136 428 155 463 b 175 501 204 537 227 558 b 251 581 284 603 323 618 b 357 631 399 639 441 639 z"},"w":{"x_min":0,"x_max":828,"ha":828,"o":"m 65 472 b 74 467 82 459 89 449 b 96 438 102 427 105 416 l 175 1 l 232 1 l 432 414 l 502 1 l 558 1 l 800 500 l 744 500 l 543 87 l 474 500 l 418 500 l 217 87 l 162 408 b 157 434 150 456 139 474 b 129 491 116 506 101 517 z"},"-":{"x_min":0,"x_max":436,"ha":436,"o":"m 355 277 l 364 334 l 67 334 l 58 277 z"},"E":{"x_min":0,"x_max":648,"ha":648,"o":"m 638 628 l 647 684 l 186 684 b 169 684 156 680 145 676 b 128 669 119 662 108 652 b 95 641 87 631 80 619 b 75 609 69 597 66 579 l 122 579 b 124 592 132 606 142 614 b 152 623 166 628 178 628 l 190 628 l 90 0 l 538 0 l 547 57 l 160 57 l 204 333 l 471 333 l 480 390 l 213 390 l 251 628 z"},"s":{"x_min":0,"x_max":444,"ha":444,"o":"m -1 48 b 17 32 40 18 67 7 b 94 -4 125 -10 159 -10 b 179 -10 200 -8 222 -3 b 245 2 266 10 286 21 b 305 32 322 46 337 65 b 351 84 360 107 365 135 b 366 144 367 152 367 160 b 367 178 364 193 356 206 b 346 224 332 239 314 251 b 296 263 276 273 255 282 b 234 290 214 299 195 308 b 177 317 162 327 151 339 b 142 348 138 360 138 374 b 138 397 147 418 167 435 b 184 449 205 456 231 456 b 249 456 268 453 288 448 b 308 443 329 435 351 426 l 370 477 b 354 488 335 496 311 501 b 288 506 266 508 246 508 b 223 508 202 505 183 498 b 164 491 147 483 133 472 b 119 461 107 448 98 433 b 89 418 83 403 81 387 b 79 378 79 370 79 362 b 79 345 82 331 89 319 b 100 302 114 287 132 276 b 150 265 170 255 192 248 b 213 240 233 231 252 222 b 270 213 285 201 296 188 b 304 178 308 165 308 150 b 308 124 301 103 288 88 b 279 76 268 67 255 60 b 243 53 229 49 215 46 b 201 43 188 42 175 42 b 143 42 115 47 92 58 b 69 68 49 79 34 90 z"},">":{"x_min":0,"x_max":389,"ha":389,"o":"m 349 265 l 113 450 l 71 401 l 247 263 l 30 127 l 54 80 z"},"l":{"x_min":0,"x_max":261,"ha":261,"o":"m 81 81 l 183 726 l 128 726 l 26 81 b 25 76 25 72 25 68 b 25 60 26 53 28 46 b 31 35 35 25 42 17 b 49 9 57 3 68 -2 b 78 -7 89 -9 101 -9 b 116 -9 131 -6 145 2 b 159 9 172 18 182 31 l 141 61 b 132 51 122 46 110 46 b 100 46 93 50 87 57 b 83 63 81 69 81 77 z"},"8":{"x_min":0,"x_max":556,"ha":556,"o":"m 327 666 b 298 666 275 662 249 653 b 219 643 201 631 185 618 b 165 602 150 584 139 565 b 127 544 119 523 116 500 b 114 490 114 481 114 473 b 114 452 119 436 127 422 b 137 404 158 383 176 372 b 160 361 153 356 131 339 b 114 326 100 314 87 298 b 77 287 61 266 51 247 b 41 228 33 207 29 182 b 27 170 27 159 27 148 b 27 133 28 118 31 105 b 36 82 47 60 63 42 b 78 25 101 9 126 -1 b 153 -11 185 -16 222 -16 b 259 -16 293 -11 322 -1 b 351 9 374 22 398 42 b 417 58 433 75 450 104 b 464 129 471 150 476 180 b 478 194 479 206 479 216 b 479 228 478 239 476 248 b 472 263 465 282 454 298 b 445 309 433 324 418 335 b 404 346 380 359 376 361 b 387 367 402 378 411 385 b 423 394 438 407 446 417 b 454 425 468 443 475 456 b 483 472 488 489 490 503 b 491 511 492 519 492 527 b 492 539 490 552 487 564 b 481 586 471 602 458 616 b 445 630 429 643 404 653 b 383 661 360 666 327 666 z m 301 389 l 248 407 b 233 411 217 420 209 426 b 197 435 189 442 183 456 b 179 464 177 474 177 485 b 177 490 177 495 178 500 b 183 532 200 561 224 580 b 251 601 285 611 320 611 b 359 611 388 599 406 580 b 422 564 429 542 429 519 b 429 476 414 455 391 433 b 370 412 338 391 324 382 z m 222 343 l 229 348 l 250 342 b 278 334 285 332 314 321 b 348 308 356 304 371 292 b 388 278 400 264 408 248 b 413 236 417 223 417 206 b 417 199 416 192 415 184 b 408 145 389 107 359 80 b 330 54 287 38 229 38 b 171 38 137 54 115 80 b 98 100 89 127 89 158 b 89 166 90 174 91 182 b 94 197 99 216 109 234 b 116 246 136 271 141 276 b 147 282 168 303 180 312 z"},"\\":{"x_min":0,"x_max":342,"ha":342,"o":"m 246 -70 l 157 750 l 94 750 l 182 -70 z"},"e":{"x_min":0,"x_max":521,"ha":521,"o":"m 399 90 b 371 77 344 65 317 56 b 290 47 263 42 235 42 b 183 42 146 55 123 82 b 100 109 90 148 92 200 l 210 200 b 238 200 266 203 293 208 b 320 213 345 222 367 234 b 389 246 408 262 424 282 b 444 307 457 340 457 379 b 457 394 455 408 450 420 b 444 439 433 455 419 468 b 405 481 387 491 366 498 b 345 505 323 508 298 508 b 265 508 234 501 205 487 b 177 472 151 453 128 429 b 105 405 86 377 71 346 b 55 315 45 282 40 247 b 36 221 34 197 34 175 b 34 125 44 85 66 55 b 96 12 150 -10 227 -10 b 263 -10 297 -4 330 7 b 363 18 392 32 418 48 z m 97 252 b 101 278 109 303 121 328 b 132 353 147 375 164 394 b 181 413 200 429 222 441 b 243 453 266 459 290 459 b 327 459 355 450 375 432 b 391 417 400 408 400 382 b 400 375 400 366 398 356 b 396 344 392 332 386 320 b 380 307 370 296 357 286 b 343 276 325 268 303 262 b 280 255 252 252 218 252 z"},"b":{"x_min":0,"x_max":542,"ha":542,"o":"m 184 726 l 129 726 l 16 10 b 32 5 55 0 83 -4 b 111 -8 149 -10 198 -10 b 233 -10 266 -3 297 10 b 328 23 355 42 379 65 b 403 88 423 116 439 148 b 455 179 466 214 472 251 b 475 271 477 290 477 308 b 477 324 476 338 474 352 b 470 383 460 410 445 433 b 431 456 411 475 387 488 b 363 501 334 508 300 508 b 267 508 237 501 209 488 b 181 475 167 468 138 433 z m 77 51 l 121 328 b 127 349 136 368 148 384 b 160 400 174 413 190 424 b 206 435 223 443 241 448 b 259 453 276 456 292 456 b 318 456 339 450 357 439 b 374 427 388 412 398 393 b 408 374 414 351 417 326 b 418 314 419 305 419 295 b 419 283 418 269 415 248 b 410 217 401 189 389 164 b 377 139 361 117 343 99 b 324 81 303 67 280 57 b 257 47 232 42 205 42 b 177 42 152 43 129 46 z"},"%":{"x_min":0,"x_max":737,"ha":737,"o":"m 80 556 b 79 548 78 540 78 533 b 78 521 80 510 82 499 b 86 481 93 465 103 452 b 114 438 126 427 141 420 b 156 412 174 408 193 408 b 212 408 230 412 248 420 b 266 427 282 438 297 452 b 312 465 324 481 334 499 b 344 517 349 526 353 556 l 355 563 b 356 571 357 579 357 586 b 357 598 355 609 353 620 b 349 638 342 654 331 668 b 321 681 308 692 292 700 b 277 707 260 711 241 711 b 222 711 203 707 186 700 b 168 692 152 681 138 668 b 123 654 111 638 101 620 b 91 602 85 583 82 563 z m 303 556 b 301 543 297 530 290 518 b 284 506 276 496 267 487 b 258 478 248 471 236 466 b 225 461 213 458 201 458 b 189 458 178 461 168 466 b 158 471 150 478 144 487 b 138 496 133 506 130 518 b 129 525 128 533 128 541 b 128 546 128 551 129 556 l 131 563 b 133 576 137 589 144 601 b 150 613 158 624 167 633 b 176 642 186 649 198 654 b 209 659 221 661 233 661 b 245 661 256 659 266 654 b 276 649 284 642 290 633 b 296 624 301 613 304 601 b 305 593 307 588 307 580 b 307 576 306 570 305 563 z m 228 0 l 550 653 l 492 653 l 169 0 z m 389 138 b 388 130 387 122 387 115 b 387 103 389 92 391 81 b 395 63 402 47 412 34 b 422 20 435 9 450 2 b 465 -6 482 -10 502 -10 b 520 -10 539 -6 557 2 b 575 9 591 20 606 34 b 621 47 633 63 643 81 b 653 99 658 108 662 138 l 663 145 b 665 154 666 162 666 171 b 666 181 664 192 662 202 b 658 220 650 236 640 250 b 629 263 616 274 601 282 b 586 289 568 293 550 293 b 530 293 512 289 494 282 b 477 274 461 263 446 250 b 432 236 420 220 410 202 b 400 184 394 165 390 145 z m 612 138 b 610 125 606 112 599 100 b 593 88 585 78 576 69 b 567 60 556 53 545 48 b 533 43 522 40 510 40 b 498 40 487 43 477 48 b 467 53 459 60 453 69 b 447 78 442 88 439 100 b 437 107 437 114 437 121 b 437 126 437 132 438 138 l 439 145 b 441 158 446 171 452 183 b 459 195 467 206 476 215 b 485 224 495 231 507 236 b 518 241 530 243 542 243 b 554 243 565 241 575 236 b 585 231 593 224 599 215 b 605 206 610 195 612 183 b 614 176 615 171 615 164 b 615 159 615 153 613 145 z"},"m":{"x_min":0,"x_max":896,"ha":896,"o":"m 82 472 b 99 453 107 427 107 394 b 107 382 106 368 103 353 l 47 0 l 102 0 l 159 358 b 168 373 179 387 192 399 b 204 411 218 421 232 430 b 246 439 261 445 276 450 b 290 454 304 456 318 456 b 350 456 374 447 389 428 b 399 415 404 396 404 371 b 404 360 403 349 401 336 l 347 0 l 402 0 l 459 357 b 504 423 557 456 619 456 b 651 456 674 448 688 431 b 699 417 705 398 705 371 b 705 365 705 358 704 350 l 661 79 b 660 74 660 68 660 63 b 660 45 665 28 677 15 b 691 -2 711 -11 737 -11 b 752 -11 766 -8 780 -1 b 794 7 806 16 817 29 l 777 59 b 767 49 757 44 745 44 b 736 44 728 48 723 55 b 718 61 715 67 715 73 b 715 75 716 77 716 79 l 759 351 b 761 363 762 375 762 386 b 762 420 753 447 734 467 b 710 494 674 508 626 508 b 598 508 569 501 539 486 b 509 471 482 447 457 415 b 451 447 437 471 414 486 b 392 501 365 508 332 508 b 300 508 269 501 240 486 b 210 471 184 448 161 417 b 160 434 157 451 151 466 b 145 481 135 494 121 505 z"},"#":{"x_min":0,"x_max":596,"ha":596,"o":"m 459 484 l 483 637 l 427 637 l 403 484 l 236 484 l 260 637 l 204 637 l 180 484 l 66 484 l 58 432 l 172 432 l 141 236 l 27 236 l 19 184 l 135 184 l 110 30 l 164 30 l 189 184 l 358 184 l 333 30 l 387 30 l 412 184 l 526 184 l 534 236 l 420 236 l 451 432 l 565 432 l 573 484 z m 228 432 l 395 432 l 364 236 l 197 236 z"},",":{"x_min":0,"x_max":192,"ha":192,"o":"m 21 32 b 18 6 13 -14 7 -27 b 0 -40 -11 -54 -26 -67 l 3 -100 b 31 -82 50 -63 62 -42 b 73 -21 81 4 85 32 l 89 52 b 90 61 88 69 83 76 b 78 82 71 85 62 85 b 53 85 44 82 37 76 b 30 69 26 61 24 52 z"},"n":{"x_min":0,"x_max":609,"ha":609,"o":"m 65 472 b 82 453 90 427 90 394 b 90 382 89 368 86 353 l 30 0 l 85 0 l 142 355 b 170 387 198 412 225 430 b 253 447 285 456 321 456 b 359 456 385 447 401 428 b 412 415 418 395 418 370 b 418 360 417 348 415 336 l 374 77 b 373 71 373 66 373 61 b 373 42 378 26 389 13 b 404 -4 424 -13 449 -13 b 465 -13 479 -10 493 -3 b 507 5 519 14 530 27 l 489 57 b 480 47 469 42 458 42 b 449 42 441 46 435 53 b 431 58 428 64 428 70 b 428 73 429 75 429 77 l 474 362 b 475 370 475 377 475 384 b 475 420 466 449 447 470 b 425 495 386 508 329 508 b 260 508 198 476 145 413 b 144 430 141 447 135 464 b 129 480 119 494 104 505 z"},"h":{"x_min":0,"x_max":593,"ha":593,"o":"m 185 729 l 130 729 l 15 3 l 70 3 l 126 358 b 155 390 182 415 210 433 b 237 450 269 459 305 459 b 342 459 368 450 385 432 b 397 419 402 401 402 376 b 402 367 402 358 400 347 l 358 82 b 357 77 357 72 357 67 b 357 49 363 33 374 19 b 389 2 409 -7 433 -7 b 465 -7 492 6 514 32 l 473 63 b 466 53 455 48 442 48 b 433 48 425 51 420 58 b 415 64 413 70 413 78 l 413 82 l 456 350 b 458 364 459 377 459 389 b 459 422 451 449 435 470 b 412 497 372 511 313 511 b 281 511 250 504 220 490 b 190 475 162 453 136 423 z"},"z":{"x_min":0,"x_max":531,"ha":531,"o":"m 460 485 l 462 498 l 111 498 l 103 446 l 360 446 l -4 13 l 34 -20 l 86 41 l 180 9 b 196 3 212 -2 238 -7 b 258 -11 281 -13 306 -13 b 344 -13 363 -13 428 30 l 410 74 b 372 51 345 39 309 39 b 294 39 272 41 254 44 b 237 47 219 52 200 59 l 124 87 z"},"B":{"x_min":0,"x_max":645,"ha":645,"o":"m 188 695 b 171 695 159 691 148 687 b 131 680 123 674 110 663 b 98 652 90 642 83 630 b 78 620 72 608 69 590 l 125 590 b 127 605 135 616 145 625 b 156 634 169 639 182 639 l 201 639 l 100 1 l 152 -5 b 171 -7 182 -8 214 -9 b 242 -10 280 -10 282 -10 b 329 -10 364 -7 399 4 b 427 13 455 26 478 44 b 500 60 521 83 534 106 b 549 131 558 158 563 186 b 565 197 565 208 565 219 b 565 242 561 265 551 287 b 538 314 518 339 485 358 l 470 364 b 467 365 462 365 455 368 l 470 373 b 478 375 481 376 486 379 b 513 393 533 410 551 434 b 565 453 578 476 584 514 b 586 525 586 536 586 546 b 586 561 585 575 581 588 b 574 610 566 625 548 644 b 530 663 515 673 490 682 b 466 691 439 695 410 695 z m 262 639 l 416 639 b 452 637 485 624 504 604 b 519 588 526 565 526 540 b 526 489 506 450 470 423 b 442 402 403 390 361 390 l 273 390 l 264 335 l 359 335 b 382 335 404 332 426 324 b 448 316 464 304 473 294 b 488 279 496 264 502 247 b 505 236 506 225 506 214 b 506 162 485 115 442 83 b 408 58 365 45 285 45 b 263 45 255 46 233 47 l 168 50 z"},"K":{"x_min":0,"x_max":643,"ha":643,"o":"m 483 684 b 444 623 405 562 381 529 b 358 497 316 443 296 423 b 282 408 265 395 245 386 b 228 379 208 373 177 372 l 134 372 l 184 684 l 123 684 l 15 1 l 78 1 l 127 313 b 138 312 151 312 153 312 b 182 312 207 315 238 324 l 398 31 b 405 18 417 7 428 1 b 435 -3 450 -8 468 -8 b 480 -8 490 -6 504 0 b 518 6 526 11 537 20 b 545 27 553 37 560 49 b 567 61 571 73 573 84 l 516 84 b 514 74 510 66 502 59 b 494 52 485 49 476 49 b 463 49 455 55 451 64 l 295 347 b 318 363 343 389 359 408 b 379 432 404 463 424 492 l 492 588 b 512 618 496 599 558 684 z"},"R":{"x_min":0,"x_max":720,"ha":720,"o":"m 186 684 b 169 684 156 680 145 676 b 128 669 120 663 108 652 b 95 641 87 631 80 619 b 75 609 69 597 66 579 l 122 579 b 124 594 132 605 143 614 b 153 623 166 628 179 628 l 198 628 l 98 0 l 159 0 l 259 628 l 409 628 b 429 628 449 623 462 616 b 473 610 486 600 498 584 b 509 569 514 553 517 535 b 519 526 519 516 519 506 b 519 497 519 487 517 476 b 510 433 491 397 461 371 b 433 347 394 332 351 332 l 264 332 l 255 276 b 292 273 310 267 329 251 b 349 235 365 212 376 193 l 476 29 b 492 3 515 -10 545 -10 b 566 -10 583 -4 598 6 b 614 15 626 28 632 38 b 641 51 647 65 649 79 l 592 81 b 590 68 589 62 574 53 b 567 49 560 47 553 47 b 540 47 533 52 528 61 l 425 231 l 408 257 b 404 263 389 277 385 280 b 382 282 377 284 374 285 l 362 289 l 375 290 l 387 290 b 417 292 441 300 461 310 b 480 320 499 334 517 353 b 532 368 546 389 556 411 b 566 430 573 451 577 479 b 579 491 580 502 580 513 b 580 527 579 540 576 555 b 572 582 564 602 551 621 b 537 641 520 656 499 667 b 480 677 456 684 422 684 z"},"T":{"x_min":0,"x_max":626,"ha":626,"o":"m 637 627 l 646 684 l 182 684 b 170 684 158 682 147 677 b 135 672 125 665 115 657 b 106 649 98 640 92 629 b 86 618 81 606 79 594 l 136 594 b 138 603 143 611 150 618 b 158 624 166 627 176 627 l 337 627 l 237 0 l 298 0 l 398 627 z"},"P":{"x_min":0,"x_max":609,"ha":609,"o":"m 186 684 b 169 684 156 680 145 676 b 128 669 120 663 108 652 b 95 641 87 631 80 619 b 75 609 69 597 66 579 l 122 579 b 124 594 132 605 143 614 b 153 623 166 628 179 628 l 200 628 l 100 -1 l 161 -1 l 261 628 l 393 628 b 439 627 474 610 493 587 b 510 567 518 540 518 508 b 518 498 518 487 516 476 b 512 452 505 430 496 412 b 484 388 470 373 457 360 b 437 340 421 332 407 326 b 384 316 366 313 345 313 l 253 317 l 244 262 l 248 262 b 258 261 257 260 271 259 b 285 259 289 258 312 258 b 362 258 393 263 421 274 b 449 285 475 304 493 321 b 512 338 529 358 546 390 b 559 414 569 440 575 475 b 577 490 578 505 578 520 b 578 533 577 546 575 558 b 570 581 562 604 547 624 b 532 645 511 660 494 668 b 476 677 449 684 416 684 z"},"|":{"x_min":0,"x_max":204,"ha":204,"o":"m 64 -70 l 194 750 l 133 750 l 3 -70 z"},"t":{"x_min":0,"x_max":365,"ha":365,"o":"m 146 498 l 166 624 l 111 624 l 35 143 b 32 127 31 112 31 99 b 31 87 32 77 34 68 b 37 48 44 32 54 21 b 64 9 76 1 91 -4 b 105 -8 121 -10 137 -10 b 169 -10 197 -3 221 12 b 246 27 267 46 285 71 l 248 101 b 235 82 218 68 199 58 b 179 47 162 42 149 42 b 139 42 130 44 121 47 b 112 50 105 56 99 64 b 94 71 90 82 88 95 b 87 100 87 105 87 110 b 87 120 88 131 90 143 l 138 443 l 296 443 l 304 498 z"},"M":{"x_min":0,"x_max":1011,"ha":1011,"o":"m 911 0 l 880 684 l 823 684 l 521 113 l 504 74 l 499 113 l 381 684 l 322 684 l 99 71 b 91 56 80 49 64 49 b 57 49 52 51 48 55 b 44 59 41 64 38 69 l -17 48 b -13 31 -3 17 11 8 b 24 -2 40 -7 58 -7 b 77 -7 96 0 116 14 b 134 27 146 44 154 64 l 332 561 l 345 601 l 349 561 l 462 0 l 521 0 l 813 562 l 831 601 l 831 563 l 854 0 z"},"g":{"x_min":0,"x_max":542,"ha":542,"o":"m 498 499 l 445 499 l 386 506 b 362 508 338 509 324 509 b 286 509 254 502 222 489 b 191 476 165 459 138 435 b 113 412 93 388 76 357 b 59 326 48 296 42 257 b 39 240 38 223 38 206 b 38 193 39 180 40 166 b 43 135 49 111 61 86 b 70 67 83 45 104 27 b 122 11 143 0 167 -6 b 150 -21 138 -35 125 -59 b 115 -78 107 -97 103 -122 b 102 -132 101 -142 101 -151 b 101 -162 102 -172 104 -181 b 107 -198 113 -216 123 -231 b 132 -246 146 -258 162 -267 b 179 -276 196 -281 219 -281 b 237 -281 255 -278 273 -273 b 294 -267 310 -259 327 -246 b 346 -232 363 -213 374 -195 b 387 -173 396 -145 402 -112 z m 344 456 l 411 452 l 438 450 l 395 179 b 393 169 386 153 376 139 b 365 122 343 100 319 81 b 305 71 282 59 272 54 b 254 45 233 42 216 42 b 185 42 165 51 151 62 b 137 73 124 89 116 103 b 106 121 97 147 93 174 b 92 183 91 194 91 206 b 91 221 92 239 95 256 b 99 283 107 308 120 332 b 130 350 143 371 166 394 b 185 413 206 428 231 439 b 256 450 282 456 311 456 z m 348 -116 b 345 -129 341 -143 336 -156 b 329 -171 322 -183 315 -192 b 308 -201 296 -211 281 -218 b 268 -224 251 -228 232 -228 b 218 -228 207 -226 196 -220 b 186 -215 179 -207 171 -197 b 165 -188 159 -178 156 -164 b 155 -158 154 -152 154 -146 b 154 -139 155 -131 156 -123 b 158 -108 162 -95 168 -84 b 174 -73 181 -63 191 -54 b 200 -45 212 -36 225 -28 l 268 -2 b 288 4 308 14 325 27 b 342 40 360 54 377 69 z"},"j":{"x_min":0,"x_max":244,"ha":244,"o":"m 220 708 b 195 708 171 686 171 659 b 171 639 186 623 207 623 b 233 623 257 646 257 672 b 257 693 242 708 220 708 z m 204 501 l 149 501 l 42 -170 b 41 -179 37 -188 29 -195 b 20 -202 12 -205 3 -205 b -10 -205 -18 -200 -24 -190 l -74 -220 b -67 -233 -58 -243 -46 -250 b -34 -257 -21 -260 -6 -260 b 6 -260 19 -258 30 -253 b 42 -248 52 -242 61 -234 b 71 -226 78 -217 85 -206 b 92 -195 95 -183 97 -170 z"},"i":{"x_min":0,"x_max":237,"ha":237,"o":"m 155 708 b 130 708 106 686 106 659 b 106 639 121 623 142 623 b 168 623 192 646 192 672 b 192 693 177 708 155 708 z m 71 80 l 138 500 l 83 500 l 16 80 b 15 75 15 69 15 64 b 15 46 20 29 32 16 b 47 -1 66 -10 91 -10 b 106 -10 121 -7 135 1 b 149 8 161 17 172 30 l 131 60 b 123 50 112 45 100 45 b 90 45 83 49 77 56 b 73 62 71 68 71 76 z"},"y":{"x_min":0,"x_max":554,"ha":554,"o":"m 64 462 b 75 453 85 441 95 427 b 105 413 109 400 107 389 l 67 138 b 66 128 65 118 65 108 b 65 80 72 57 86 38 b 106 13 138 -2 183 -7 b 173 -13 164 -21 156 -31 b 148 -41 141 -52 135 -64 b 130 -75 125 -87 121 -99 b 118 -110 115 -120 114 -129 b 113 -138 112 -147 112 -155 b 112 -166 113 -176 115 -186 b 119 -205 126 -221 136 -236 b 145 -251 158 -263 174 -272 b 190 -281 209 -285 230 -285 b 249 -285 268 -282 288 -277 b 307 -271 325 -262 342 -249 b 359 -236 373 -218 386 -197 b 398 -175 407 -148 412 -117 l 452 137 l 511 500 l 456 500 l 402 171 b 401 160 398 152 394 145 l 381 126 b 356 100 331 80 306 66 b 281 51 252 44 220 44 b 182 44 156 54 140 73 b 129 86 123 105 123 130 b 123 141 124 152 126 164 l 162 389 b 163 394 163 398 163 403 b 163 411 162 419 160 427 b 156 439 151 450 144 461 b 138 471 131 480 123 488 b 115 496 107 503 101 508 z m 387 59 l 358 -121 b 353 -153 340 -180 320 -201 b 300 -222 273 -232 239 -232 b 225 -232 214 -229 203 -224 b 193 -218 185 -210 179 -201 b 173 -191 169 -180 167 -167 b 166 -161 166 -154 166 -148 b 166 -141 166 -135 167 -128 b 172 -100 181 -78 196 -61 b 211 -44 233 -29 261 -15 l 315 11 b 334 20 354 33 374 49 z"},"@":{"x_min":0,"x_max":703,"ha":703,"o":"m 505 -20 l 498 25 b 490 21 478 17 464 13 b 450 8 435 4 417 1 b 399 -3 380 -6 360 -9 b 340 -11 319 -12 298 -12 b 262 -12 229 -6 201 6 b 173 17 150 34 132 55 b 114 76 102 102 94 133 b 90 149 89 166 89 184 b 89 200 90 217 93 235 b 99 274 110 309 127 342 b 143 375 164 403 189 426 b 214 449 242 468 275 481 b 307 494 341 501 379 501 b 414 501 446 495 474 484 b 501 473 525 457 543 436 b 561 415 574 389 581 359 b 585 342 587 324 587 304 b 587 289 586 273 583 257 b 580 235 574 216 566 200 b 558 184 549 171 539 161 b 529 151 519 144 508 139 b 498 134 488 132 479 132 b 465 132 453 136 441 145 b 430 154 424 170 424 194 l 457 401 l 413 401 b 404 401 393 402 381 404 b 370 405 358 406 348 406 b 328 406 310 402 292 394 b 274 386 258 375 243 362 b 229 349 217 333 206 316 b 196 298 190 279 187 260 b 185 248 184 236 184 225 b 184 215 185 206 186 197 b 189 178 195 161 204 147 b 213 132 224 121 238 113 b 252 105 267 101 285 101 b 323 101 356 116 386 147 b 393 107 422 87 472 87 b 489 87 506 91 524 98 b 542 105 558 115 573 129 b 588 143 601 161 612 182 b 623 203 631 227 636 255 b 639 274 641 293 641 311 b 641 333 638 354 634 374 b 625 410 610 441 588 467 b 566 492 538 512 504 527 b 470 541 431 548 386 548 b 340 548 297 540 258 525 b 218 509 184 487 154 459 b 124 431 99 398 79 359 b 59 320 45 278 38 232 b 35 213 33 194 33 177 b 33 154 36 133 41 113 b 49 77 65 46 87 21 b 109 -5 137 -25 171 -39 b 206 -53 245 -60 290 -60 b 311 -60 331 -59 352 -56 b 373 -53 393 -49 412 -45 b 432 -41 449 -37 465 -32 z m 399 351 l 378 216 b 376 213 374 208 370 201 b 366 194 360 186 353 179 b 346 172 337 165 327 160 b 317 154 306 151 293 151 b 280 151 269 154 261 161 b 252 167 246 175 242 186 b 236 199 234 215 234 232 b 234 240 234 247 237 260 b 241 288 253 311 274 329 b 295 347 317 356 343 356 b 351 356 360 356 371 355 z"},".":{"x_min":0,"x_max":206,"ha":206,"o":"m 62 81 b 37 81 13 59 13 32 b 13 12 28 -4 49 -4 b 75 -4 99 19 99 45 b 99 66 84 81 62 81 z"},"p":{"x_min":0,"x_max":558,"ha":558,"o":"m 65 472 b 82 453 90 427 90 394 b 90 382 89 368 86 353 l -11 -261 l 44 -261 l 85 -1 b 100 -3 118 -5 140 -7 b 161 -9 186 -10 214 -10 b 249 -10 282 -3 313 10 b 344 23 371 42 395 65 b 419 88 439 116 455 148 b 471 179 482 214 488 251 b 491 271 493 290 493 308 b 493 324 492 338 490 352 b 486 383 476 410 461 433 b 447 456 427 475 403 488 b 379 501 350 508 316 508 b 280 508 247 501 217 486 b 187 471 172 463 144 421 b 143 438 139 453 133 467 b 127 481 117 494 104 505 z m 93 51 l 137 328 b 143 349 152 368 164 384 b 176 400 190 413 206 424 b 222 435 239 443 257 448 b 275 453 292 456 308 456 b 334 456 355 450 373 439 b 390 427 404 412 414 393 b 424 374 430 351 433 326 b 434 314 435 305 435 295 b 435 283 434 269 431 248 b 426 217 417 189 405 164 b 393 139 377 117 359 99 b 340 81 319 67 296 57 b 273 47 248 42 221 42 b 193 42 168 43 145 46 z"},"X":{"x_min":0,"x_max":668,"ha":668,"o":"m 352 351 l 615 684 l 544 684 l 317 395 l 181 684 l 112 684 l 270 351 l 5 0 l 76 0 l 306 306 l 408 65 b 413 52 418 41 423 32 b 428 23 433 15 440 10 b 446 4 454 0 462 -3 b 470 -6 480 -7 492 -7 b 505 -7 517 -5 528 0 b 540 5 550 11 559 19 b 569 27 577 36 583 47 b 590 57 595 68 597 80 l 540 83 b 537 74 532 66 525 60 b 518 54 510 51 501 51 b 489 51 481 56 477 65 z"},"*":{"x_min":0,"x_max":378,"ha":378,"o":"m 250 577 l 275 694 l 215 694 l 203 578 l 104 619 l 76 562 l 178 534 l 97 452 l 139 416 l 216 512 l 263 418 l 317 452 l 263 533 l 371 562 l 363 619 z"},"Y":{"x_min":0,"x_max":632,"ha":632,"o":"m 129 605 b 131 614 136 621 144 627 b 151 632 159 635 167 635 b 179 635 188 629 193 618 l 318 297 l 268 0 l 334 0 l 380 299 l 657 685 l 587 685 l 359 366 l 250 646 b 235 678 211 694 176 694 b 153 694 131 686 111 670 b 90 654 77 634 71 611 z"},"c":{"x_min":0,"x_max":520,"ha":520,"o":"m 400 94 b 373 81 346 69 319 60 b 292 51 265 46 237 46 b 212 46 190 50 170 58 b 150 65 134 77 121 93 b 108 109 99 129 95 153 b 93 165 91 177 91 191 b 91 205 93 220 95 236 b 99 263 107 291 118 318 b 129 345 142 369 159 391 b 176 412 195 430 218 443 b 240 456 264 463 292 463 b 328 463 357 454 377 436 b 393 421 401 402 401 379 b 401 373 400 367 399 360 l 456 360 b 458 369 458 378 458 386 b 458 400 456 412 452 424 b 445 443 435 459 421 472 b 406 485 389 495 368 502 b 347 509 324 512 299 512 b 267 512 236 505 207 491 b 178 476 152 457 129 433 b 107 409 88 381 72 350 b 57 319 47 286 41 251 b 37 226 35 203 35 181 b 35 131 46 90 67 60 b 98 16 152 -6 228 -6 b 264 -6 299 0 332 11 b 364 22 394 36 420 52 z"},"!":{"x_min":0,"x_max":189,"ha":189,"o":"m 93 159 l 189 704 l 113 704 l 37 159 z m 53 95 b 24 95 -4 69 -4 39 b -4 17 14 -1 38 -1 b 68 -1 95 25 95 53 b 95 77 77 95 53 95 z"},"/":{"x_min":0,"x_max":342,"ha":342,"o":"m 28 -70 l 376 750 l 313 750 l -36 -70 z"},"[":{"x_min":0,"x_max":335,"ha":335,"o":"m 362 693 l 371 750 l 133 750 l -13 -174 l 225 -174 l 234 -117 l 57 -117 l 185 693 z"},"6":{"x_min":0,"x_max":571,"ha":571,"o":"m 493 649 b 434 649 382 638 329 615 b 278 593 236 566 190 524 b 150 487 116 443 87 392 b 65 351 43 302 34 242 b 31 220 29 200 29 181 b 29 157 32 136 35 120 b 43 82 61 52 76 34 b 93 12 120 -8 144 -19 b 169 -30 200 -37 233 -37 b 264 -37 295 -31 325 -19 b 355 -7 377 6 405 30 b 429 51 449 74 466 102 b 482 130 492 158 497 189 b 499 202 501 216 501 228 b 501 247 498 265 494 280 b 487 306 472 332 455 352 b 438 372 418 389 388 402 b 365 412 338 419 304 419 b 271 419 240 412 204 396 b 173 382 145 365 112 331 b 161 428 212 489 278 533 b 344 577 413 596 484 596 z m 296 366 b 318 366 341 362 361 353 b 386 343 403 326 411 316 b 428 298 437 277 442 260 b 445 248 447 234 447 219 b 447 210 446 201 445 191 b 441 167 432 143 421 124 b 410 105 393 84 374 68 b 356 52 335 39 312 30 b 285 19 261 16 241 16 b 224 16 207 18 187 25 b 172 30 154 39 141 49 b 129 59 116 75 106 92 b 94 111 90 125 86 152 b 86 163 87 173 89 185 b 93 213 102 235 115 258 b 129 280 140 295 164 315 b 182 329 199 342 227 353 b 251 362 274 366 296 366 z"},"r":{"x_min":0,"x_max":394,"ha":394,"o":"m 75 472 b 92 453 100 427 100 394 b 100 382 99 368 96 353 l 40 0 l 95 0 l 152 357 b 174 388 197 412 222 429 b 246 446 272 455 300 455 b 312 455 322 455 331 454 b 340 453 351 451 365 448 l 374 500 l 349 505 b 340 507 329 508 316 508 b 282 508 252 501 227 486 b 201 471 178 448 155 417 b 154 434 150 451 144 466 b 138 481 128 494 114 505 z"},"2":{"x_min":0,"x_max":538,"ha":538,"o":"m 87 517 l 130 493 l 134 499 l 154 531 b 163 547 177 562 187 570 b 202 584 224 597 239 603 b 256 610 285 618 316 618 b 356 618 387 605 407 581 b 421 564 431 539 431 510 b 431 472 416 438 390 407 b 366 379 333 351 316 338 b 291 319 262 300 221 273 b 190 253 158 229 126 202 b 103 182 70 150 48 118 b 26 86 12 49 6 13 l 4 0 l 440 0 l 449 57 l 77 57 b 91 89 106 110 128 133 b 146 151 173 174 206 198 b 233 218 281 249 294 258 b 323 277 351 296 379 320 b 399 337 427 364 448 393 b 468 422 479 451 485 487 b 486 495 487 505 487 517 b 487 526 487 537 485 549 b 483 576 476 592 465 608 b 451 627 437 638 412 649 b 387 660 361 665 321 665 b 290 665 270 662 248 656 b 230 651 207 642 192 633 b 176 624 156 608 149 601 b 143 595 126 576 119 565 z"},"{":{"x_min":0,"x_max":323,"ha":323,"o":"m 335 750 b 314 744 293 738 272 733 b 251 728 231 720 214 711 b 196 702 180 689 167 672 b 154 655 145 633 140 605 b 137 586 135 565 133 543 l 130 479 l 128 420 b 127 402 126 388 124 377 b 122 366 118 357 111 350 b 105 343 97 337 87 332 b 78 327 69 323 59 321 b 49 318 40 317 31 316 l 23 261 b 31 260 40 258 49 256 b 59 253 67 250 75 245 b 82 240 88 234 92 227 b 95 222 97 216 97 210 b 97 207 97 203 96 200 b 94 189 91 175 86 157 l 70 99 b 64 78 58 56 53 34 b 47 12 43 -9 40 -28 b 39 -38 38 -48 38 -57 b 38 -72 40 -84 45 -95 b 53 -112 65 -125 80 -134 b 95 -143 112 -151 131 -156 b 151 -161 170 -167 189 -173 l 210 -127 b 191 -122 174 -117 159 -112 b 144 -107 132 -101 123 -94 b 113 -87 106 -78 103 -68 b 101 -62 99 -55 99 -47 b 99 -42 100 -36 101 -30 b 103 -18 106 -2 111 17 l 128 78 b 134 99 140 121 145 143 b 150 164 154 183 157 200 b 158 206 158 212 158 217 b 158 225 157 232 155 238 b 151 249 147 258 141 265 b 135 272 129 277 122 281 b 115 284 109 287 105 288 l 125 297 b 133 300 141 306 149 313 b 158 320 165 328 172 339 b 178 349 183 362 185 377 b 188 394 190 413 191 434 b 193 455 194 477 194 499 l 197 560 b 198 579 200 595 202 607 b 204 622 209 635 216 645 b 222 655 232 664 244 671 b 255 678 269 684 286 689 b 302 694 321 699 342 704 z"},"9":{"x_min":0,"x_max":570,"ha":570,"o":"m 66 -37 l 70 -37 b 132 -37 184 -24 232 -3 b 282 19 326 48 370 89 b 411 128 446 172 472 220 b 500 271 516 321 525 377 b 529 399 530 417 530 435 b 530 455 528 473 523 493 b 514 533 501 554 483 577 b 464 601 441 619 414 631 b 389 642 357 649 325 649 b 295 649 263 643 233 631 b 198 617 176 601 154 582 b 129 561 108 536 93 510 b 77 482 66 452 61 421 b 59 410 58 398 58 387 b 58 369 61 350 66 331 b 73 303 86 280 104 259 b 121 241 140 223 170 210 b 193 200 223 193 252 193 b 268 193 286 195 306 201 b 323 206 344 215 359 222 b 375 230 391 240 408 252 b 421 261 435 272 452 287 b 428 240 408 208 377 171 b 349 137 324 112 287 86 b 252 61 219 45 185 34 b 151 23 117 16 75 16 z m 317 596 b 339 596 358 592 371 588 b 391 582 408 570 417 562 b 433 550 444 535 453 520 b 463 502 468 485 472 460 b 472 448 472 439 470 427 b 465 398 456 375 445 356 b 430 330 414 314 396 298 b 377 282 359 270 334 260 b 311 251 288 246 262 246 b 238 246 218 250 196 260 b 172 270 157 284 146 297 b 135 311 124 326 117 352 b 114 364 112 377 112 392 b 112 401 113 411 114 421 b 117 440 124 465 139 490 b 151 510 166 528 185 544 b 203 560 224 573 247 582 b 269 591 292 596 317 596 z"}," ":{"x_min":0,"x_max":291,"ha":291,"o":""},"I":{"x_min":0,"x_max":204,"ha":204,"o":"m 75 0 l 184 684 l 123 684 l 14 0 z"},"H":{"x_min":0,"x_max":700,"ha":700,"o":"m 123 613 b 132 624 143 627 152 627 b 161 627 167 624 172 618 b 176 613 178 607 178 600 l 178 596 l 83 0 l 145 0 l 197 327 l 566 327 l 514 0 l 575 0 l 684 684 l 623 684 l 575 384 l 206 384 l 240 596 b 241 600 241 604 241 608 b 241 616 240 623 238 631 b 236 640 232 651 222 662 b 216 669 207 677 195 682 b 187 686 175 689 161 689 b 129 689 99 674 77 648 z"},"4":{"x_min":0,"x_max":537,"ha":537,"o":"m 80 183 l 356 660 l 289 660 l 8 176 l 0 126 l 318 126 l 298 -3 l 360 -3 l 380 126 l 464 126 l 473 183 l 389 183 l 425 405 l 363 405 l 327 183 z"},"~":{"x_min":0,"x_max":529,"ha":529,"o":"m 169 337 b 134 334 98 320 61 293 l 88 252 b 118 273 146 284 174 284 b 194 284 216 279 240 269 b 269 256 297 250 324 250 l 338 250 b 373 253 409 267 446 294 l 418 335 b 389 314 360 303 332 303 b 312 303 290 308 267 318 b 237 331 208 337 181 337 z"},"D":{"x_min":0,"x_max":805,"ha":805,"o":"m 188 690 b 171 690 158 686 147 682 b 131 676 119 667 110 659 b 95 647 87 636 82 626 b 73 611 69 599 67 585 l 123 585 b 125 597 130 607 141 618 b 152 627 162 632 175 634 l 200 634 l 99 0 l 118 -3 l 146 -5 b 162 -6 152 -6 220 -8 b 261 -9 250 -10 293 -10 b 406 -10 446 -3 494 16 b 541 35 581 62 615 92 b 651 124 680 160 703 203 b 727 249 741 297 749 342 b 752 364 754 385 754 405 b 754 430 751 453 747 474 b 739 519 723 551 701 580 b 677 614 649 636 613 655 b 575 675 539 685 487 690 z m 261 634 l 468 634 b 512 632 550 621 575 609 b 602 596 630 574 649 549 b 667 526 680 497 688 458 b 692 439 694 419 694 399 b 694 381 692 363 689 343 b 681 297 668 257 649 221 b 628 179 602 151 578 129 b 548 102 516 81 478 66 b 439 51 400 45 323 45 b 269 45 251 48 243 48 b 237 48 236 46 168 50 z"},"^":{"x_min":0,"x_max":454,"ha":454,"o":"m 415 363 l 280 615 l 260 615 l 45 363 l 88 330 l 253 524 l 359 328 z"},"0":{"x_min":0,"x_max":654,"ha":654,"o":"m 377 663 b 336 663 297 655 261 638 b 225 621 193 597 165 567 b 137 536 113 501 94 460 b 74 419 61 374 53 326 b 49 301 47 277 47 253 b 47 233 49 213 52 194 b 58 153 71 117 89 87 b 108 57 132 33 163 16 b 194 -1 229 -10 271 -10 b 311 -10 350 -2 386 16 b 423 33 455 56 483 86 b 511 116 535 152 554 193 b 574 234 587 278 595 326 b 599 352 601 377 601 400 b 601 421 600 441 597 460 b 590 501 578 536 559 566 b 540 596 516 620 485 637 b 454 654 438 663 377 663 z m 370 608 b 400 608 427 601 451 588 b 474 574 493 555 508 530 b 522 505 532 475 536 440 b 538 425 539 410 539 395 b 539 373 537 350 533 326 b 526 285 515 247 500 212 b 484 177 466 148 443 123 b 421 98 396 79 368 66 b 340 52 327 45 281 45 b 249 45 222 52 198 66 b 175 79 156 99 141 124 b 127 149 118 178 113 213 b 111 227 110 242 110 258 b 110 279 112 302 116 326 b 123 368 134 406 149 441 b 165 475 183 505 206 530 b 228 555 253 574 281 588 b 309 601 338 608 370 608 z"},"F":{"x_min":0,"x_max":608,"ha":608,"o":"m 638 627 l 647 683 l 186 683 b 169 683 156 679 145 675 b 128 668 120 662 108 651 b 95 640 87 630 80 618 b 75 608 69 596 66 578 l 122 578 b 124 591 132 605 141 613 b 152 622 166 627 178 627 l 190 627 l 90 -1 l 151 -1 l 204 332 l 471 332 l 480 389 l 213 389 l 251 627 z"},"`":{"x_min":0,"x_max":260,"ha":260,"o":"m 267 601 l 128 726 l 85 677 l 239 567 z"},"k":{"x_min":0,"x_max":584,"ha":584,"o":"m 185 727 l 130 727 l 15 1 l 70 1 l 101 201 l 271 201 l 342 43 b 348 30 357 19 370 12 b 382 5 396 1 412 1 b 436 1 458 10 478 27 b 497 44 509 64 514 87 l 459 90 b 457 81 453 73 445 67 b 437 61 429 58 420 58 b 410 58 403 62 396 69 l 328 216 b 343 224 356 232 368 240 b 380 248 391 258 401 269 b 411 280 419 292 426 307 b 433 322 439 339 443 360 b 444 370 445 379 445 388 b 445 421 436 448 419 469 b 396 496 359 509 307 509 b 269 509 236 500 207 482 b 179 464 154 440 134 410 z m 111 253 b 116 279 123 304 134 329 b 145 354 159 376 175 395 b 191 414 210 430 231 442 b 253 454 275 460 299 460 b 336 460 361 451 375 433 b 389 414 394 391 392 363 b 387 347 382 334 376 323 b 370 312 362 302 353 293 b 343 284 329 275 309 266 b 288 257 261 253 227 253 z"},"u":{"x_min":0,"x_max":624,"ha":624,"o":"m 64 462 b 75 453 85 441 95 427 b 105 413 109 400 107 389 l 67 138 b 66 130 66 123 66 116 b 66 80 75 51 94 30 b 116 5 155 -8 212 -8 b 277 -8 335 21 388 78 b 387 73 387 69 387 65 b 387 45 393 29 405 15 b 419 -2 439 -11 464 -11 b 479 -11 494 -8 508 -1 b 522 7 534 16 545 28 l 504 59 b 495 49 484 44 472 44 b 463 44 455 48 450 55 b 445 61 442 67 442 73 b 442 75 443 77 443 79 l 511 500 l 456 500 l 398 144 b 370 112 342 87 315 70 b 288 53 256 44 220 44 b 182 44 156 54 140 73 b 129 86 123 105 123 130 b 123 141 124 152 126 164 l 162 389 b 163 394 163 398 163 403 b 163 411 162 419 160 427 b 156 439 151 450 144 461 b 138 471 131 480 123 488 b 115 496 107 503 101 508 z"},"]":{"x_min":0,"x_max":336,"ha":336,"o":"m 184 -174 l 330 750 l 92 750 l 83 693 l 260 693 l 132 -117 l -45 -117 l -54 -174 z"},"U":{"x_min":0,"x_max":747,"ha":747,"o":"m 122 616 b 129 625 140 633 156 633 b 164 633 171 631 175 629 b 178 627 183 621 184 618 b 186 615 187 611 187 608 l 187 606 l 187 595 l 135 268 b 132 247 130 229 130 212 b 130 191 133 173 136 156 b 143 123 156 93 176 68 b 197 42 219 25 252 11 b 280 -1 313 -9 359 -9 b 404 -9 439 -1 471 11 b 512 26 541 47 565 69 b 590 91 612 115 633 156 b 649 186 662 219 670 268 l 736 685 l 675 685 l 609 268 b 603 232 594 203 579 175 b 565 147 548 126 526 106 b 505 87 484 73 455 62 b 426 51 397 46 366 46 b 332 46 308 52 284 62 b 256 74 241 89 227 106 b 211 126 202 147 196 175 b 193 190 192 205 192 221 b 192 235 193 251 196 268 l 248 595 b 249 601 249 607 249 614 b 249 620 249 627 247 633 b 243 648 233 662 231 665 b 223 673 212 681 201 686 b 192 690 179 693 166 693 b 149 693 130 688 118 682 b 105 676 87 662 77 650 z"},"o":{"x_min":0,"x_max":608,"ha":608,"o":"m 330 508 b 293 508 257 501 225 488 b 192 475 163 456 137 433 b 112 410 91 382 74 350 b 57 318 45 284 40 247 b 37 229 36 212 36 195 b 36 177 37 160 41 144 b 48 113 61 86 79 63 b 97 40 120 22 149 9 b 177 -4 210 -10 248 -10 b 284 -10 319 -4 352 10 b 385 23 414 41 439 64 b 464 87 485 114 503 146 b 520 178 528 194 537 250 b 540 266 541 282 541 297 b 541 317 539 335 535 353 b 528 384 516 412 498 435 b 480 458 456 476 428 489 b 399 502 367 508 330 508 z m 322 456 b 350 456 376 451 398 442 b 420 432 438 418 452 400 b 466 382 475 361 480 336 b 483 322 485 312 485 298 b 485 286 484 272 480 252 b 475 221 466 192 453 167 b 440 141 424 119 404 101 b 385 82 362 68 337 58 b 312 47 285 42 256 42 b 227 42 201 47 179 57 b 158 67 140 81 126 99 b 111 117 102 139 97 165 b 95 178 93 191 93 205 b 93 220 95 235 97 250 b 102 281 111 309 124 334 b 137 359 153 381 173 399 b 193 417 215 431 240 441 b 265 451 292 456 322 456 z"},"N":{"x_min":0,"x_max":780,"ha":780,"o":"m 337 559 l 246 684 l 208 684 l 113 85 b 111 76 106 68 98 62 b 90 55 82 52 73 52 b 63 52 56 55 50 62 b 46 68 44 74 44 82 l 44 86 l -12 86 b -13 81 -13 76 -13 71 b -13 53 -7 37 4 23 b 19 5 39 -4 64 -4 b 76 -4 88 -2 100 3 b 112 8 123 14 133 22 b 144 30 152 40 159 51 b 166 62 171 73 173 85 l 248 584 l 259 563 l 640 0 l 658 0 l 767 683 l 708 683 l 623 129 l 612 151 z"},"+":{"x_min":0,"x_max":432,"ha":432,"o":"m 240 319 l 265 479 l 209 479 l 184 319 l 26 319 l 18 268 l 176 268 l 150 107 l 206 107 l 232 268 l 390 268 l 398 319 z"},"G":{"x_min":0,"x_max":751,"ha":751,"o":"m 544 -178 b 541 -189 536 -196 529 -202 b 522 -208 514 -212 503 -212 b 490 -212 482 -206 477 -197 l 424 -230 b 430 -242 440 -253 452 -260 b 462 -266 475 -271 493 -271 b 504 -271 517 -269 530 -264 b 539 -260 551 -254 564 -243 b 572 -236 582 -225 589 -213 b 596 -201 599 -189 601 -178 l 677 303 l 620 303 l 608 224 b 599 195 591 175 572 146 b 553 119 535 100 512 82 b 486 61 460 48 436 39 b 403 27 374 23 346 23 b 303 23 268 33 241 46 b 210 61 180 85 159 111 b 135 141 118 177 110 208 b 105 229 102 252 102 276 b 102 293 104 310 106 328 b 114 374 129 414 150 451 b 171 488 196 520 231 552 b 265 583 300 606 339 622 b 380 639 419 647 460 647 b 480 647 499 645 518 641 b 537 637 560 629 570 623 b 584 615 599 603 605 594 b 611 587 615 576 615 564 b 615 550 609 536 601 528 b 596 523 584 517 574 517 b 568 517 562 519 555 524 l 515 481 b 529 469 546 463 566 463 b 593 463 614 474 632 489 b 658 511 670 540 670 576 b 670 593 665 607 658 620 b 645 642 628 655 613 665 b 595 676 574 686 545 693 b 520 699 493 702 467 702 b 417 702 370 691 325 672 b 278 652 238 626 199 591 b 164 559 131 522 103 472 b 78 427 60 379 52 327 b 49 308 47 288 47 268 b 47 241 51 213 58 186 b 68 148 87 107 115 73 b 141 41 173 16 212 -3 b 247 -20 285 -31 335 -31 b 377 -31 423 -23 469 -3 b 510 15 547 39 585 82 z"},"q":{"x_min":0,"x_max":543,"ha":543,"o":"m 322 -261 l 377 -261 l 496 488 b 479 493 456 498 428 502 b 401 506 363 508 314 508 b 279 508 245 501 215 488 b 184 475 157 456 132 433 b 108 410 88 382 72 350 b 56 318 45 284 40 247 b 37 227 35 207 35 188 b 35 174 36 160 38 147 b 42 116 52 88 66 65 b 81 42 100 23 124 10 b 149 -3 178 -10 212 -10 b 244 -10 275 -4 303 10 b 331 23 355 41 374 64 z m 390 170 b 385 148 376 129 363 113 b 351 97 337 84 321 74 b 305 63 289 55 271 50 b 253 45 236 42 220 42 b 194 42 172 48 154 60 b 137 71 123 87 113 106 b 103 125 96 147 94 172 b 93 183 92 191 92 201 b 92 213 94 227 97 250 b 102 281 110 309 123 334 b 135 359 151 381 169 399 b 188 417 209 431 232 441 b 255 451 280 456 307 456 b 335 456 360 455 383 453 b 405 450 422 448 434 446 z"},"d":{"x_min":0,"x_max":612,"ha":612,"o":"m 432 80 l 535 727 l 480 727 l 443 499 b 429 501 410 503 388 505 b 367 507 342 508 314 508 b 279 508 246 501 215 488 b 184 475 157 456 133 433 b 108 410 89 382 73 350 b 57 318 45 284 40 247 b 37 227 35 208 35 190 b 35 175 36 161 38 147 b 42 116 51 88 67 65 b 81 42 100 23 125 10 b 149 -3 178 -10 212 -10 b 246 -10 277 -3 305 10 b 333 23 357 43 376 68 b 376 46 383 28 397 13 b 411 -3 430 -10 453 -10 b 468 -10 483 -7 498 1 b 512 8 523 17 533 30 l 493 61 b 484 50 475 45 462 45 b 453 45 445 49 439 56 b 434 62 432 68 432 76 z m 394 188 b 390 163 382 142 370 124 b 358 105 344 90 328 78 b 311 66 293 57 274 51 b 256 45 237 42 220 42 b 194 42 172 48 155 60 b 137 71 123 87 113 106 b 103 125 97 147 95 172 b 94 182 93 192 93 202 b 93 218 95 234 97 250 b 102 281 110 309 123 334 b 135 359 151 381 170 399 b 187 417 209 431 232 441 b 255 451 280 456 307 456 b 335 456 360 455 384 453 b 407 451 425 449 435 446 z"},"1":{"x_min":0,"x_max":363,"ha":363,"o":"m 238 0 l 344 669 l 336 669 l 272 630 b 251 617 230 605 211 595 b 191 585 172 577 153 571 b 135 564 117 561 100 561 l 105 509 b 135 509 163 515 189 526 b 215 537 241 553 268 573 l 177 0 z"},"5":{"x_min":0,"x_max":520,"ha":520,"o":"m 452 596 l 461 653 b 434 651 366 650 343 649 b 293 648 262 647 126 646 l 82 368 l 86 364 b 100 369 119 374 141 378 b 164 382 189 384 222 384 b 254 384 270 382 295 377 b 325 371 338 366 355 354 b 372 342 383 332 392 309 b 398 296 401 282 401 265 b 401 256 400 246 398 235 b 393 207 386 185 375 163 b 365 142 353 122 332 102 b 312 84 289 69 267 61 b 250 55 222 50 189 50 b 153 50 133 56 108 69 b 87 80 60 98 34 119 l 14 66 b 17 62 32 49 45 40 b 58 30 80 20 86 17 b 99 10 112 4 130 0 b 143 -3 159 -6 186 -6 b 218 -6 250 -2 279 7 b 306 16 333 30 359 52 b 370 62 383 76 392 87 b 401 98 410 111 420 129 b 427 142 437 161 442 175 b 447 188 453 209 455 226 b 457 239 458 251 458 263 b 458 283 455 301 451 317 b 442 349 424 371 409 386 b 388 406 369 416 338 426 b 309 435 283 440 241 440 l 213 440 b 201 438 181 436 153 432 l 178 592 l 335 592 z"}}}
